<svg xmlns="http://www.w3.org/2000/svg" viewBox="0 0 900 1200" role="img" aria-labelledby="title desc">
  <title id="title">Acoustic guitar lesson scene</title>
  <desc id="desc">A warm illustrated acoustic guitar on a study surface with picks and lesson notes.</desc>
  <defs>
    <linearGradient id="bg" x1="0" x2="1" y1="0" y2="1">
      <stop offset="0" stop-color="#6c9b98"/>
      <stop offset="0.52" stop-color="#2d5d61"/>
      <stop offset="1" stop-color="#1f3f42"/>
    </linearGradient>
    <linearGradient id="wood" x1="0" x2="1">
      <stop offset="0" stop-color="#d99a52"/>
      <stop offset="0.48" stop-color="#f0c06f"/>
      <stop offset="1" stop-color="#be743e"/>
    </linearGradient>
    <filter id="shadow" x="-30%" y="-30%" width="160%" height="160%">
      <feDropShadow dx="0" dy="22" stdDeviation="18" flood-color="#173032" flood-opacity=".32"/>
    </filter>
  </defs>
  <rect width="900" height="1200" fill="url(#bg)"/>
  <path d="M0 760c130-80 270-105 420-75 198 40 310-18 480-110v625H0Z" fill="#173032" opacity=".28"/>
  <g opacity=".18" stroke="#fff" stroke-width="2">
    <path d="M86 184h210M95 234h270M80 284h240"/>
    <path d="M664 146h128M626 196h182M692 246h92"/>
  </g>
  <g transform="translate(206 152) rotate(17 245 445)" filter="url(#shadow)">
    <rect x="405" y="0" width="72" height="530" rx="28" fill="#8b5734"/>
    <rect x="398" y="0" width="86" height="86" rx="18" fill="#5c3b28"/>
    <g fill="#d9c8a5">
      <circle cx="410" cy="20" r="8"/>
      <circle cx="474" cy="20" r="8"/>
      <circle cx="410" cy="52" r="8"/>
      <circle cx="474" cy="52" r="8"/>
    </g>
    <path d="M431 88h19v478h-19z" fill="#d8b16c"/>
    <path d="M214 420c-110-30-166 47-172 139-8 119 92 219 218 190 53-12 78-44 112-34 37 11 40 52 101 63 129 24 234-79 219-199-12-94-77-165-183-140-63 15-87-23-95-80-9-65-71-96-123-60-36 25-31 86-77 121Z" fill="url(#wood)"/>
    <path d="M226 452c-77-22-121 30-126 95-6 84 69 155 157 134 42-10 64-38 104-26 42 13 50 49 102 57 88 14 164-56 154-142-8-67-58-115-133-97-74 18-119-4-131-82-9-57-63-66-89-26-23 36-4 72-38 87Z" fill="#f7d58a" opacity=".26"/>
    <circle cx="371" cy="535" r="78" fill="#2b2622"/>
    <circle cx="371" cy="535" r="52" fill="#111" opacity=".55"/>
    <rect x="282" y="672" width="196" height="28" rx="8" fill="#4a2f24"/>
    <g stroke="#f6e5bd" stroke-width="3" opacity=".95">
      <path d="M423 82 326 684"/>
      <path d="M433 82 350 684"/>
      <path d="M443 82 374 684"/>
      <path d="M453 82 398 684"/>
      <path d="M463 82 422 684"/>
      <path d="M473 82 446 684"/>
    </g>
  </g>
  <g transform="translate(80 805)" opacity=".94">
    <rect x="0" y="0" width="260" height="190" rx="18" fill="#fff8ea"/>
    <path d="M36 50h150M36 88h196M36 126h120" stroke="#6b7f79" stroke-width="10" stroke-linecap="round"/>
    <circle cx="216" cy="42" r="17" fill="#d96c57"/>
  </g>
</svg>
